<?xml version="1.0" encoding="utf-8"?>
<!-- Generator: Adobe Illustrator 19.0.0, SVG Export Plug-In . SVG Version: 6.00 Build 0)  -->
<svg version="1.1" id="Layer_1" xmlns="http://www.w3.org/2000/svg" xmlns:xlink="http://www.w3.org/1999/xlink" x="0px" y="0px"
	 viewBox="-393 144 492 513" style="enable-background:new -393 144 492 513;" xml:space="preserve">
<style type="text/css">
	.st0{fill:#FFFFFF;}
</style>
<g>
	<path class="st0" d="M-306.1,216.3c-0.8-15.4,2.5-28.8,14.2-39.1c7.9-6.9,17.2-10.5,27.6-10.4c12.7,0.1,23.6,5,32,15
		c6,7.2,6.2,7.9,10.5,34.2c49.9,0,99.8,0,150.4,0c-0.9-16.8,3.6-31.5,17.9-41.7c7.5-5.3,16-7.9,25.1-7.5
		c12.7,0.5,23.1,5.6,31.2,15.5c8.1,9.7,9.8,21.2,9.5,34c4.2,0,8.1-0.1,11.8,0c26.5,0.4,47.4,17.3,52,42.3c0.7,4.1,0.8,8.4,0.8,12.6
		c0.1,21.5,0,42.8,0,64.3c0,81.4-0.1,162.9,0.1,244.3c0,18.2-6.5,32.9-20.8,44c-7.8,6-16.6,9.5-26.4,10.1c-2.6,0.2-5.2,0.2-7.8,0.2
		c-112.8,0-225.6-0.1-338.4,0.1c-18.1,0-32.9-6.2-44.1-20.4c-7.7-10-10.6-21.6-10.6-34.1c0.1-91,0-182.1,0-273.1
		c0-12.2-0.1-24.4,0-36.6c0.2-31.1,22.3-53.2,53.4-53.6C-314,216.3-310.3,216.3-306.1,216.3z M53.7,355.5c-134.2,0-267.5,0-401.3,0
		c0,1.7,0,3.1,0,4.6c0,73.2,0,146.4,0,219.6c0,19.5,11.4,30.9,30.8,30.9c113.3,0,226.6,0,339.8,0c3.1,0,6.2-0.1,9.2-0.8
		c14-3.4,21.5-14.1,21.5-30.2c0-73,0-146.1,0-219.1C53.7,359,53.7,357.4,53.7,355.5z M11.8,239.8c-0.5,1.7-0.9,3.3-1.4,4.8
		c-4.7,17.3-21.4,29.9-39.8,30s-35.3-12.3-39.9-29.6c-1-3.9-2.6-5.3-6.8-5.3c-47.2,0.2-94.5,0.1-141.6,0.1c-1.6,0-3.2,0-4.9,0
		c-0.5,1.3-0.9,2.3-1.3,3.5c-5.1,17.7-19.4,30.1-36.3,31.2c-19.2,1.3-35.1-8.2-42.7-25.8c-1.2-2.9-1.6-7.1-3.7-8.3
		c-2.5-1.5-6.7-0.5-10-0.5c-19.3,0.2-30.8,11.7-30.9,30.9c-0.1,18.8,0,37.7,0,56.5c0,1.4,0.2,2.8,0.3,4.4c133.7,0,267.2,0,400.9,0
		c0-22.1,0.3-44.1-0.1-65.9c-0.2-10.2-5.7-17.6-14.6-22.6C30.2,238.4,21,239.9,11.8,239.8z M-47.9,220.5L-47.9,220.5
		c0,4.5-0.2,9.1,0.1,13.6c0.5,8.9,7.8,16.2,16.5,17c9.5,0.7,18.6-5.2,19.4-14.4c1-10.6,0.9-21.4,0-32c-0.8-9.2-9.9-15.4-18.8-14.7
		c-9.4,0.7-16.7,8.1-17.2,17.4C-48.1,211.6-47.9,216-47.9,220.5z M-282.6,220.6c0,4.2-0.1,8.4,0,12.7c0.4,9.5,7.6,17.1,16.7,17.7
		c9.7,0.7,18.6-5.4,19.4-15c0.9-10.2,0.9-20.7,0-30.9c-0.8-9.2-9.7-15.6-18.6-15c-9.7,0.6-17.1,8-17.5,17.5
		C-282.8,211.9-282.6,216.3-282.6,220.6z"/>
	<path class="st0" d="M-165.6,504.2c1.5-1.4,2.8-2.6,4.1-3.8c23.2-22.7,46.6-45.2,69.5-68.1c8.5-8.4,15.6-6.6,19.6-2.5
		c4,4.1,5.4,11.2-3,19.5c-26.4,25.4-52.6,51.2-78.8,76.8c-8.7,8.5-14,8.4-22.7-0.1c-14.2-13.9-28.3-27.6-42.5-41.5
		c-5.4-5.3-6.3-10.9-2.8-16.1c3.4-5.2,10.1-6.7,15.4-3.5c1.9,1.2,3.6,2.7,5.2,4.3C-189.6,480.6-177.7,492.3-165.6,504.2z"/>
</g>
</svg>
