<?xml version="1.0" encoding="utf-8"?>
<!-- Generator: Adobe Illustrator 19.0.0, SVG Export Plug-In . SVG Version: 6.00 Build 0)  -->
<svg version="1.1" id="Layer_1" xmlns="http://www.w3.org/2000/svg" xmlns:xlink="http://www.w3.org/1999/xlink" x="0px" y="0px"
	 viewBox="0 0 393 329" style="enable-background:new 0 0 393 329;" xml:space="preserve">
<style type="text/css">
	.st0{fill:#FFFFFF;}
</style>
<g>
	<path class="st0" d="M4.5,135.2c1.9-8,4.7-15.4,10.4-21.6c7-7.5,15.6-11.8,25.8-13c2.3-0.3,4.6-1,6.8-1.9
		C129.9,68,212.3,37.2,294.7,6.5c14.3-5.3,28.1,1.1,33,15.6c8.5,24.9,17,49.8,25.3,74.8c0.9,2.8,2.1,4,5.1,4.9
		c16.1,4.4,26,15,29.7,31.4c0.2,0.7,0.5,1.4,0.7,2.1c0,13.3,0,26.5,0,39.8c-2.4,4.2-6,5.9-10.9,5.5c-3.1-0.2-6.3-0.1-9.3,0.4
		c-12.6,1.9-21.4,8.8-25.7,20.6c-4.4,11.9-2.1,22.9,6.3,32.4c7.5,8.6,17.4,11.2,28.4,10.6c4.9-0.3,8.8,1,11.2,5.5
		c0,13.3,0,26.5,0,39.8c-1.2,3.6-1.9,7.5-3.6,10.9c-7.7,16.2-20.8,23.8-38.7,23.8c-74.2-0.1-148.4,0-222.6,0c-25.9,0-51.7,0-77.6,0
		c-16.1,0-28.5-6.8-36.4-20.8c-2.4-4.2-3.4-9.3-5.1-13.9c0-13.3,0-26.5,0-39.8c2.4-4.3,6-5.9,10.9-5.5c3.1,0.2,6.2,0,9.3-0.4
		c14-1.7,24.8-12.3,27.4-26.8c2.3-13.2-4.8-27.1-17.1-33.3c-6.2-3.2-12.9-3.9-19.6-3.5c-4.9,0.3-8.5-1.2-10.9-5.5
		C4.5,161.7,4.5,148.4,4.5,135.2z M371.9,260.7c-31.5-1.6-47.2-27.2-47.4-47.7c-0.3-21.4,16.2-47.4,48.1-48.9c0-7.1,0-14.2,0-21.3
		c0-16.5-9.9-26.4-26.3-26.4c-64.5,0-129,0-193.5,0c-1.3,0-2.7,0-4.3,0c0,2.8,0.1,5.2,0,7.5c-0.2,5.1-3.4,8.4-8.1,8.4
		c-4.6-0.1-7.6-3.3-7.8-8.3c-0.1-2.5,0-4.9,0-7.2c-0.8-0.2-1-0.4-1.3-0.4c-29.4,0-58.7-0.1-88.1,0.1c-10.1,0.1-19.7,7.2-21.5,17.3
		c-1.7,9.9-1.3,20.2-1.8,30.4c30.5,1.5,46.7,24,48.3,43.8c0.9,11.8-1.7,22.6-8.7,32.2c-9.6,13.2-22.8,19.7-39.1,20.5
		c0,7.6,0,14.8,0,22c0.1,15.7,10.1,25.8,25.8,25.8c27.4,0,54.7,0,82.1,0c1.3,0,2.6,0,4.2,0c0-2.9-0.1-5.3,0-7.6
		c0.2-5,3.2-8.2,7.8-8.3c4.7-0.1,7.9,3.3,8.1,8.4c0.1,2.4,0,4.9,0,7.5c1.9,0,3.3,0,4.7,0c64.2,0,128.5,0,192.7,0
		c1.4,0,2.8,0,4.1-0.1c10.4-0.6,20.5-8.3,21.7-18.6C372.8,280.2,371.9,270.4,371.9,260.7z M337.1,100.3c-0.4-1.5-0.6-2.4-0.9-3.3
		c-7.8-23.2-15.6-46.3-23.5-69.5c-2.2-6.6-6.2-8.4-12.8-5.9C231.1,47.3,162.4,72.9,93.7,98.6c-0.9,0.4-1.8,0.9-3.7,1.8
		C173,100.3,254.7,100.3,337.1,100.3z"/>
	<path class="st0" d="M132.6,178.3c0-4.4-0.1-8.7,0-13.1c0.1-4.8,3.6-8.2,8-8.2c4.4,0.1,7.8,3.5,7.9,8.3c0.1,8.7,0.1,17.5,0,26.2
		c-0.1,5.1-3.5,8.5-8.1,8.5c-4.5-0.1-7.6-3.4-7.8-8.3c0-0.2,0-0.5,0-0.7C132.6,186.8,132.6,182.5,132.6,178.3
		C132.6,178.3,132.6,178.3,132.6,178.3z"/>
	<path class="st0" d="M132.6,246.2c0-4.4-0.1-8.7,0-13.1c0.1-4.9,3.3-8.2,7.8-8.3c4.6-0.1,8.1,3.3,8.1,8.4c0.1,8.7,0.1,17.5,0,26.2
		c-0.1,4.8-3.4,8.3-7.8,8.4c-4.5,0.1-7.9-3.5-8.1-8.5c0-0.2,0-0.5,0-0.7C132.6,254.5,132.6,250.4,132.6,246.2z"/>
</g>
</svg>
